<?xml version="1.0" standalone="no"?><!DOCTYPE svg PUBLIC "-//W3C//DTD SVG 1.1//EN" "http://www.w3.org/Graphics/SVG/1.1/DTD/svg11.dtd"><svg t="1701958573133" class="icon" viewBox="0 0 1024 1024" version="1.1" xmlns="http://www.w3.org/2000/svg" p-id="7618" xmlns:xlink="http://www.w3.org/1999/xlink" width="200" height="200"><path d="M256 848h608v112H256zM976 432H48v-64L512 80l464 288z" fill="#54FEBD" p-id="7619"></path><path d="M1008 1024H16a16 16 0 1 1 0-32h992a16 16 0 1 1 0 32z" fill="#1D1B4C" p-id="7620"></path><path d="M112 1024a16 16 0 0 1-16-16V368a16 16 0 1 1 32 0v640a16 16 0 0 1-16 16zM912 1024a16 16 0 0 1-16-16V368a16 16 0 1 1 32 0v640a16 16 0 0 1-16 16z" fill="#1D1B4C" p-id="7621"></path><path d="M976 384H48a16 16 0 0 1-16-16v-64a16 16 0 0 1 7.568-13.6l464-288c5.152-3.2 11.712-3.2 16.864 0l464 288A16 16 0 0 1 992 304v64a16 16 0 0 1-16 16zM64 352h896v-39.104L512 34.816 64 312.912V352zM816 1024a16 16 0 0 1-16-16V528H224v480a16 16 0 1 1-32 0V512a16 16 0 0 1 16-16h608a16 16 0 0 1 16 16v496a16 16 0 0 1-16 16z" fill="#1D1B4C" p-id="7622"></path><path d="M816 624H208a16 16 0 1 1 0-32h608a16 16 0 1 1 0 32zM816 720H208a16 16 0 1 1 0-32h608a16 16 0 1 1 0 32zM816 816H208a16 16 0 1 1 0-32h608a16 16 0 1 1 0 32zM816 912H208a16 16 0 1 1 0-32h608a16 16 0 1 1 0 32zM480 320a16 16 0 0 1-16-16v-128a16 16 0 1 1 32 0v128a16 16 0 0 1-16 16z" fill="#1D1B4C" p-id="7623"></path><path d="M528 256h-48a16 16 0 1 1 0-32h48a16.016 16.016 0 0 0 0-32h-48a16 16 0 1 1 0-32h48c26.464 0 48 21.536 48 48s-21.536 48-48 48zM416 256c-4.16 0-8.32-1.76-11.36-4.64-2.88-3.04-4.64-7.2-4.64-11.36 0-4.16 1.76-8.32 4.64-11.36 6.08-5.92 16.8-5.92 22.72 0 2.88 3.04 4.64 7.2 4.64 11.36 0 4.16-1.76 8.32-4.64 11.36-3.04 2.88-7.04 4.64-11.36 4.64zM624 256c-4.32 0-8.48-1.76-11.36-4.64A16.48 16.48 0 0 1 608 240c0-4.16 1.76-8.32 4.64-11.36 5.92-5.92 16.64-5.92 22.72 0 2.88 3.04 4.64 7.2 4.64 11.36 0 4.32-1.76 8.32-4.64 11.36-3.04 2.88-7.04 4.64-11.36 4.64zM688 256c-4.16 0-8.32-1.76-11.36-4.64-2.88-3.04-4.64-7.2-4.64-11.36 0-4.16 1.76-8.32 4.64-11.36 6.08-5.92 16.8-5.92 22.72 0 2.88 3.04 4.64 7.04 4.64 11.36 0 4.16-1.76 8.32-4.8 11.36-2.88 2.88-7.04 4.64-11.2 4.64zM352 256c-4.16 0-8.32-1.76-11.36-4.64A16.48 16.48 0 0 1 336 240c0-4.16 1.76-8.32 4.64-11.36 6.08-5.92 16.8-5.92 22.72 0 2.88 3.04 4.64 7.2 4.64 11.36 0 4.16-1.76 8.32-4.64 11.36-3.04 2.88-7.04 4.64-11.36 4.64zM512 976c-4.16 0-8.32-1.76-11.36-4.64-2.88-3.04-4.64-7.2-4.64-11.36 0-4.16 1.76-8.32 4.64-11.36 6.08-5.92 16.8-5.92 22.72 0 2.88 3.04 4.64 7.2 4.64 11.36 0 4.16-1.76 8.32-4.64 11.36-3.04 2.88-7.2 4.64-11.36 4.64z" fill="#1D1B4C" p-id="7624"></path></svg>