<?xml version="1.0" standalone="no"?><!DOCTYPE svg PUBLIC "-//W3C//DTD SVG 1.1//EN" "http://www.w3.org/Graphics/SVG/1.1/DTD/svg11.dtd"><svg t="1710496951947" class="icon" viewBox="0 0 1024 1024" version="1.1" xmlns="http://www.w3.org/2000/svg" p-id="4414" xmlns:xlink="http://www.w3.org/1999/xlink" width="300" height="300"><path d="M511.305942 1022.611884c-282.376696 0-511.305942-228.91926-511.305942-511.305942 0-282.376696 228.929246-511.305942 511.305942-511.305942 282.386682 0 511.305942 228.91926 511.305942 511.305942s-228.91926 511.305942-511.305942 511.305942z m0-953.186124c-244.038736 0-441.880182 197.841446-441.880182 441.880182 0 244.048723 197.831459 441.880182 441.880182 441.880182s441.880182-197.831459 441.880182-441.880182c0-244.038736-197.841446-441.880182-441.880182-441.880182z m-45.178673 705.172783c-43.880436 0-43.880436-43.880436-43.880436-43.880436l43.880436-219.412165s0-43.880436-43.880436-43.880436c0 0-43.880436 0-43.880436-43.880435H510.007704s43.880436 0 43.880436 43.880435-43.880436 175.521743-43.880436 219.412166c0 43.880436 43.880436 43.880436 43.880436 43.880435h43.890422c-0.009986 0-0.009986 43.880436-131.651293 43.880436z m87.760871-438.82433c-24.2371 0-43.880436-19.653322-43.880436-43.880436 0-24.2371 19.653322-43.890422 43.880436-43.890422 24.2371 0 43.890422 19.653322 43.890422 43.890422 0 24.2371-19.653322 43.880436-43.890422 43.880436z m3.894713-10.395889" fill="#333333" p-id="4415"></path></svg>