<?xml version="1.0" standalone="no"?><!DOCTYPE svg PUBLIC "-//W3C//DTD SVG 1.1//EN" "http://www.w3.org/Graphics/SVG/1.1/DTD/svg11.dtd"><svg t="1710502365999" class="icon" viewBox="0 0 1024 1024" version="1.1" xmlns="http://www.w3.org/2000/svg" p-id="5475" xmlns:xlink="http://www.w3.org/1999/xlink" width="300" height="300"><path d="M512.599982 1024.001c-21.799361 0-39.398846-17.699481-39.398845-39.398846v-26.299229c0-21.799361 17.699481-39.398846 39.398845-39.398846 21.799361 0 39.398846 17.699481 39.398846 39.398846v26.299229c0 21.699364-17.699481 39.398846-39.398846 39.398846zM511.700009 866.30562c-21.799361 0-39.398846-17.699481-39.398846-39.398846 0-114.196654 102.996983-189.494448 180.494712-236.293077 82.997568-49.49855 134.396063-140.095896 134.396063-236.493072 0-73.497847-28.599162-142.695819-80.597639-194.694296-51.998477-51.998477-121.096452-80.597639-194.594299-80.697636h-0.099997c-73.497847 0-142.595822 28.599162-194.594299 80.597639-51.998477 51.998477-80.597639 121.096452-80.697636 194.594299v78.797692c0 21.799361-17.599484 39.398846-39.398846 39.398845s-39.398846-17.699481-39.398845-39.398845v-78.797692c0-94.597229 36.898919-183.494624 103.696962-250.392664 66.998037-66.698046 155.99543-103.496968 250.492661-103.496968h0.099997c94.597229 0 183.494624 36.898919 250.392664 103.696962 66.89804 66.89804 103.696962 155.795436 103.696962 250.392664 0 123.996367-66.198061 240.492954-172.69494 304.091091-96.997158 58.498286-142.295831 112.196713-142.295831 168.695058-0.099997 21.699364-17.699481 39.398846-39.498843 39.398846z" fill="#1AB394" p-id="5476"></path></svg>