<?xml version="1.0" standalone="no"?><!DOCTYPE svg PUBLIC "-//W3C//DTD SVG 1.1//EN" "http://www.w3.org/Graphics/SVG/1.1/DTD/svg11.dtd"><svg t="1706967786759" class="icon" viewBox="0 0 1024 1024" version="1.1" xmlns="http://www.w3.org/2000/svg" p-id="2173" xmlns:xlink="http://www.w3.org/1999/xlink" width="200" height="200"><path d="M825.5 259.5c-149-148.9-387.6-153.5-542-13.8-8.6 7.8-21.9 7.4-30.2-0.8L226 217.6c-8-7.9-21-7.5-28.5 0.8-139.2 154.5-135.3 393.3 13.4 542 148.6 148.6 387.8 152.3 542.2 13 8.6-7.8 21.8-7.4 30.1 0.8l28.1 27.8c8 7.9 20.9 7.4 28.4-0.9 139.4-154.5 134.6-392.8-14.2-541.6z" fill="#FEAC33" p-id="2174"></path><path d="M229.9 221.5l-3.9-3.9c-8-7.9-21-7.5-28.5 0.8-99.8 110.8-126 264.9-78 398.1-10.1-34.5-15.5-71-15.5-108.8 0-113.3 48.5-215.2 125.9-286.2zM839.7 801.1C979 646.6 974.3 408.3 825.5 259.5c-43.3-43.3-94.1-74.3-148.2-93.2 121.1 65.7 203.3 194 203.3 341.4 0 101.3-38.8 193.6-102.4 262.8 1.8 1 3.5 2.2 5 3.7l28.1 27.8c8 7.9 20.9 7.4 28.4-0.9z" fill="#FEAC33" p-id="2175"></path><path d="M677.3 166.3c-71.6-25-148.9-28.7-222.2-11.1 6.7-0.4 13.4-0.6 20.2-0.6 185 0 334.9 149.9 334.9 334.9s-150 334.8-334.9 334.8-334.9-150-334.9-334.9c0-98.2 42.3-186.6 109.6-247.8l-20.1-20.1C152.5 292.5 104 394.4 104 507.7c0 37.8 5.4 74.3 15.5 108.9 18.9 52.5 49.4 101.7 91.4 143.8 148.6 148.6 387.8 152.3 542.2 13 7-6.3 17.1-7.3 25.1-3 63.6-69.1 102.4-161.4 102.4-262.8 0-147.3-82.2-275.6-203.3-341.3z" fill="#FEB133" p-id="2176"></path><path d="M140.4 489.4c0 185 149.9 334.9 334.9 334.9s334.9-149.9 334.9-334.9-150-334.9-334.9-334.9c-6.8 0-13.5 0.2-20.2 0.6-62.1 14.9-121.3 45.1-171.6 90.6-8.6 7.8-21.9 7.4-30.2-0.8l-3.3-3.3c-67.3 61.2-109.6 149.6-109.6 247.8z m317.9-299.8c155.5 0 281.5 126 281.5 281.5s-126 281.5-281.5 281.5-281.5-126-281.5-281.5 126-281.5 281.5-281.5z" fill="#FEB633" p-id="2177"></path><path d="M458.3 752.5c155.5 0 281.5-126 281.5-281.5s-126-281.5-281.5-281.5-281.5 126-281.5 281.5 126 281.5 281.5 281.5z m-17-527.8c126 0 228.1 102.1 228.1 228.1s-102.2 228-228.1 228-228.1-102.1-228.1-228.1 102.1-228 228.1-228z" fill="#FFBC34" p-id="2178"></path><path d="M441.3 680.8c126 0 228.1-102.1 228.1-228.1s-102.2-228-228.1-228-228.1 102.1-228.1 228 102.1 228.1 228.1 228.1z m-17-421.1c96.5 0 174.7 78.2 174.7 174.7s-78.2 174.7-174.7 174.7-174.7-78.2-174.7-174.7 78.2-174.7 174.7-174.7z" fill="#FFC134" p-id="2179"></path><path d="M424.3 609.1c96.5 0 174.7-78.2 174.7-174.7s-78.2-174.7-174.7-174.7-174.7 78.2-174.7 174.7 78.2 174.7 174.7 174.7z m-17-314.3c67 0 121.3 54.3 121.3 121.3s-54.3 121.3-121.3 121.3S286 483.1 286 416.1s54.3-121.3 121.3-121.3z" fill="#FFC634" p-id="2180"></path><path d="M321.543001 501.866277a121.3 121.3 0 1 0 171.541111-171.547099 121.3 121.3 0 1 0-171.541111 171.547099Z" fill="#FFCB34" p-id="2181"></path><path d="M488.5 883.9c-2.9 0-5.9 0-8.8-0.1-104.1-2.2-201.8-43.8-275.1-117.1s-115-171-117.3-274.9C85 388.3 121.8 289.1 190.8 212.5c5.3-5.8 12.8-9.3 20.6-9.5 7.9-0.2 15.3 2.7 20.9 8.3l27.4 27.2c4.9 4.9 12.7 5.1 17.8 0.5 76.6-69.3 175.8-106.1 279.3-103.7 103.9 2.4 201.6 44.3 275.1 117.8 73.4 73.4 115.3 171 117.8 274.8 2.5 103.4-34.2 202.6-103.3 279.2-5.2 5.8-12.7 9.3-20.5 9.5-7.9 0.3-15.3-2.7-20.9-8.2l-28.1-27.8c-4.9-4.8-12.7-5-17.7-0.5-74.6 67.2-170.4 103.8-270.7 103.8z m-276.3-663h-0.3c-3 0.1-5.7 1.3-7.7 3.6-66 73.2-101.1 168-98.9 266.9 2.2 99.3 42 192.6 112 262.6s163.3 109.7 262.8 111.9c99 2.1 193.8-33.1 267-99.1 12.1-10.9 30.8-10.5 42.4 1l28.1 27.8c2.1 2 4.8 3.1 7.7 3 3-0.1 5.7-1.4 7.7-3.6 66-73.2 101-167.9 98.6-266.7-2.4-99.1-42.4-192.4-112.5-262.5-70.2-70.2-163.6-110.2-262.8-112.5-98.9-2.3-193.6 32.8-266.8 99-12.2 11-30.9 10.5-42.6-1.1L219.6 224c-2-2-4.6-3.1-7.4-3.1z" fill="#FFA820" p-id="2182"></path><path d="M173.2 422.9c-4.3 3.1-10 4.2-15.5 2.6-9.5-2.8-15-12.8-12.3-22.3 20.9-71.9 54.3-120.3 55.8-122.3 5.7-8.1 16.9-10.1 25.1-4.5 8.1 5.7 10.1 16.9 4.5 25.1-0.5 0.8-31.6 46.1-50.7 111.8-1.2 4-3.7 7.3-6.9 9.6zM159.3 492.8c-3.6 2.6-8.3 3.8-13 3.1-9.8-1.4-16.6-10.6-15.2-20.4l1.6-11.1c1.4-9.8 10.6-16.6 20.4-15.2 9.8 1.4 16.6 10.6 15.2 20.4l-1.6 11.1c-0.7 5.1-3.5 9.3-7.4 12.1z" fill="#FFFFFF" p-id="2183"></path><path d="M579.6 335.6c37.2 12.3 68.6 35.8 90.8 67.9 12.2 17.6 36.3 22 53.9 9.8s22-36.3 9.8-53.9c-31.9-46-76.9-79.7-130.1-97.3-65-21.5-134.5-16.4-195.7 14.3a253.43 253.43 0 0 0-67.2 48.6c-27.5 27.8-54.3-67.5-68.9-23.4-6.7 20.3-6.7 159 38.3 173.9 20.3 6.7 36.3-6 43-26.3 31-93.6 132.5-144.6 226.1-113.6zM732.7 543.7c-20.3-6.7-36.3 6-43 26.3-31 93.6-132.4 144.6-226.1 113.6-37.2-12.3-68.6-35.8-90.8-67.9-12.2-17.6-36.3-22-53.9-9.8s-22 36.3-9.8 53.9c31.9 46 76.9 79.7 130.1 97.3 65 21.5 134.5 16.4 195.7-14.3 25.2-12.7 47.8-29.1 67.2-48.6 27.5-27.8 54.3 67.5 68.9 23.4 6.7-20.2 6.7-158.9-38.3-173.9z" fill="#FFE3B4" p-id="2184"></path></svg>